<mxfile host="app.diagrams.net" modified="2022-03-24T02:03:57.531Z" agent="5.0 (Macintosh; Intel Mac OS X 10_15_7) AppleWebKit/537.36 (KHTML, like Gecko) Chrome/99.0.4844.74 Safari/537.36" etag="mwjgofdyxTJu3dcaUfmG" version="17.1.3" type="github">
  <diagram name="Page-1" id="e7e014a7-5840-1c2e-5031-d8a46d1fe8dd">
    <mxGraphModel dx="1234" dy="684" grid="0" gridSize="10" guides="1" tooltips="1" connect="1" arrows="1" fold="1" page="1" pageScale="1" pageWidth="1169" pageHeight="826" background="none" math="0" shadow="0">
      <root>
        <mxCell id="0" />
        <mxCell id="1" parent="0" />
        <mxCell id="k-PogV9iw9nHgQf0J8GU-70" value="blog" style="swimlane;fontSize=14;strokeColor=#6c8ebf;fillColor=#dae8fc;" parent="1" vertex="1">
          <mxGeometry x="85" y="163" width="186.04" height="128" as="geometry" />
        </mxCell>
        <mxCell id="k-PogV9iw9nHgQf0J8GU-71" value="id" style="text;html=1;align=left;verticalAlign=middle;resizable=0;points=[];autosize=1;strokeColor=none;fillColor=none;fontSize=14;flipH=0;spacingRight=-5;" parent="k-PogV9iw9nHgQf0J8GU-70" vertex="1">
          <mxGeometry x="10" y="33" width="16" height="21" as="geometry" />
        </mxCell>
        <mxCell id="k-PogV9iw9nHgQf0J8GU-74" value="title" style="text;html=1;align=left;verticalAlign=middle;resizable=0;points=[];autosize=1;strokeColor=none;fillColor=none;fontSize=14;flipH=0;" parent="k-PogV9iw9nHgQf0J8GU-70" vertex="1">
          <mxGeometry x="10" y="56" width="32" height="21" as="geometry" />
        </mxCell>
        <mxCell id="k-PogV9iw9nHgQf0J8GU-93" value="status" style="text;html=1;align=left;verticalAlign=middle;resizable=0;points=[];autosize=1;strokeColor=none;fillColor=none;fontSize=14;flipH=0;spacingRight=-5;" parent="k-PogV9iw9nHgQf0J8GU-70" vertex="1">
          <mxGeometry x="10" y="76" width="43" height="21" as="geometry" />
        </mxCell>
        <mxCell id="k-PogV9iw9nHgQf0J8GU-107" value="attachment" style="swimlane;fontSize=14;strokeColor=#6c8ebf;fillColor=#dae8fc;" parent="1" vertex="1">
          <mxGeometry x="339" y="163" width="242" height="155" as="geometry" />
        </mxCell>
        <mxCell id="k-PogV9iw9nHgQf0J8GU-108" value="id" style="text;html=1;align=left;verticalAlign=middle;resizable=0;points=[];autosize=1;strokeColor=none;fillColor=none;fontSize=14;flipH=0;" parent="k-PogV9iw9nHgQf0J8GU-107" vertex="1">
          <mxGeometry x="10" y="30" width="30" height="20" as="geometry" />
        </mxCell>
        <mxCell id="k-PogV9iw9nHgQf0J8GU-109" value="table = blog" style="text;html=1;align=left;verticalAlign=middle;resizable=0;points=[];autosize=1;strokeColor=none;fillColor=none;fontSize=14;flipH=0;spacingRight=-5;" parent="k-PogV9iw9nHgQf0J8GU-107" vertex="1">
          <mxGeometry x="10" y="52" width="78" height="21" as="geometry" />
        </mxCell>
        <mxCell id="k-PogV9iw9nHgQf0J8GU-111" value="biz_id" style="text;html=1;align=left;verticalAlign=middle;resizable=0;points=[];autosize=1;strokeColor=none;fillColor=none;fontSize=14;flipH=0;spacingRight=-5;" parent="k-PogV9iw9nHgQf0J8GU-107" vertex="1">
          <mxGeometry x="10" y="74" width="42" height="21" as="geometry" />
        </mxCell>
        <mxCell id="k-PogV9iw9nHgQf0J8GU-110" value="name" style="text;html=1;align=left;verticalAlign=middle;resizable=0;points=[];autosize=1;strokeColor=none;fillColor=none;fontSize=14;flipH=0;spacingRight=-5;" parent="k-PogV9iw9nHgQf0J8GU-107" vertex="1">
          <mxGeometry x="10" y="97" width="40" height="21" as="geometry" />
        </mxCell>
        <mxCell id="4svblFhVDyxfPA9xFEh6-13" style="edgeStyle=orthogonalEdgeStyle;rounded=0;orthogonalLoop=1;jettySize=auto;html=1;entryX=0.5;entryY=0;entryDx=0;entryDy=0;" parent="1" source="k-PogV9iw9nHgQf0J8GU-109" target="k-PogV9iw9nHgQf0J8GU-70" edge="1">
          <mxGeometry relative="1" as="geometry" />
        </mxCell>
        <mxCell id="4svblFhVDyxfPA9xFEh6-14" style="edgeStyle=orthogonalEdgeStyle;rounded=0;orthogonalLoop=1;jettySize=auto;html=1;entryX=1.033;entryY=0.4;entryDx=0;entryDy=0;entryPerimeter=0;" parent="1" edge="1">
          <mxGeometry relative="1" as="geometry">
            <mxPoint x="349" y="248.5" as="sourcePoint" />
            <mxPoint x="111.52800000000002" y="205.39999999999998" as="targetPoint" />
            <Array as="points">
              <mxPoint x="288" y="249" />
              <mxPoint x="288" y="205" />
            </Array>
          </mxGeometry>
        </mxCell>
        <mxCell id="K6nl6_qBiRxU3fenEGxF-1" value="url" style="text;html=1;align=left;verticalAlign=middle;resizable=0;points=[];autosize=1;strokeColor=none;fillColor=none;fontSize=14;flipH=0;spacingRight=-5;" vertex="1" parent="1">
          <mxGeometry x="350" y="284" width="21" height="21" as="geometry" />
        </mxCell>
      </root>
    </mxGraphModel>
  </diagram>
</mxfile>
